<?xml version="1.0" encoding="UTF-8" standalone="no"?>
<!-- Uploaded to: SVG Repo, www.svgrepo.com, Generator: SVG Repo Mixer Tools -->

<svg
   width="697.263"
   height="797.22229"
   viewBox="0 0 20.91789 23.916669"
   fill="none"
   version="1.1"
   id="svg1"
   sodipodi:docname="file-cv-svgrepo-com.svg"
   inkscape:version="1.4.2 (f4327f4, 2025-05-13)"
   xmlns:inkscape="http://www.inkscape.org/namespaces/inkscape"
   xmlns:sodipodi="http://sodipodi.sourceforge.net/DTD/sodipodi-0.dtd"
   xmlns="http://www.w3.org/2000/svg"
   xmlns:svg="http://www.w3.org/2000/svg">
  <defs
     id="defs1" />
  <sodipodi:namedview
     id="namedview1"
     pagecolor="#ffffff"
     bordercolor="#000000"
     borderopacity="0.25"
     inkscape:showpageshadow="2"
     inkscape:pageopacity="0.0"
     inkscape:pagecheckerboard="0"
     inkscape:deskcolor="#d1d1d1"
     showguides="false"
     inkscape:zoom="1.01875"
     inkscape:cx="397.05521"
     inkscape:cy="396.07362"
     inkscape:window-width="1920"
     inkscape:window-height="1017"
     inkscape:window-x="-8"
     inkscape:window-y="-8"
     inkscape:window-maximized="1"
     inkscape:current-layer="svg1" />
  <path
     d="m 11.293631,1.2620305 0.305138,-1.16278659 z m 1.698,1.0547196 -0.924435,0.8455813 z M 12.049416,1.5483832 12.732512,0.52877308 Z M 2.7350256,22.460149 3.3285539,21.394666 Z M 1.5923538,21.414996 2.7572115,20.87209 Z M 18.182765,22.460149 17.589224,21.394666 Z M 19.325398,21.414996 18.16054,20.87209 Z M 18.385014,7.2501113 19.309448,6.4045299 Z m 0.840109,0.8618207 1.114655,-0.6248198 z m 0.312983,0.6913196 1.271276,-0.2791658 z M 1.5923538,2.5018163 2.7572115,3.0447099 Z M 2.7350256,1.4566274 3.3285539,2.5221095 Z M 13.034512,11.668405 c -0.175055,-0.640724 -0.884821,-1.030324 -1.585305,-0.870083 -0.700483,0.160121 -1.126421,0.809335 -0.951235,1.45006 z m 0.69277,7.464952 -1.26827,0.289988 c 0.145379,0.532383 0.668323,0.905839 1.26827,0.905839 0.599948,0 1.122892,-0.373456 1.26827,-0.905839 z m 3.229311,-6.884975 c 0.175186,-0.640725 -0.250752,-1.289939 -0.951236,-1.45006 -0.700483,-0.160241 -1.410249,0.229359 -1.585305,0.870083 z m -7.8050708,8.080802 c 0.7220552,0 1.3073598,-0.535371 1.3073598,-1.195827 0,-0.660455 -0.5853046,-1.195827 -1.3073598,-1.195827 z M 6.8435481,18.951352 6.3432477,20.056058 v 0 z M 5.4284748,17.656989 4.220631,18.114632 v 0 z m 3.7230474,-4.502768 c 0.7220552,0 1.3073598,-0.535372 1.3073598,-1.195827 0,-0.660456 -0.5853046,-1.195828 -1.3073598,-1.195828 z M 6.8435481,12.140399 6.3432477,11.035693 Z M 5.4284748,13.434762 4.220631,12.977119 Z M 13.073603,1.4109707 c 0,-0.66044342 -0.585306,-1.19582722 -1.307361,-1.19582722 -0.722055,0 -1.30736,0.5353838 -1.30736,1.19582722 z m 6.301475,8.1557688 c 0.722054,0 1.30736,-0.5353838 1.30736,-1.1958272 0,-0.6604315 -0.585306,-1.1958272 -1.30736,-1.1958272 z M 15.426851,21.525012 H 5.4909143 v 2.391654 H 15.426851 Z M 2.6147223,18.894192 V 5.0225961 H 2.2913021e-6 V 18.894192 Z M 5.4909143,2.3917763 H 10.033336 V 1.2179508e-4 H 5.4909143 Z M 18.303042,9.9559814 v 8.9382106 h 2.61472 V 9.9559814 Z M 10.033336,2.3917763 c 0.701791,0 0.839587,0.00769 0.955027,0.033041 L 11.598769,0.09924391 C 11.112431,-0.00756737 10.610667,1.2179508e-4 10.033336,1.2179508e-4 Z M 13.916065,1.4711687 C 13.507777,1.0977836 13.158973,0.7678309 12.732512,0.52877308 L 11.36632,2.5679933 c 0.10119,0.056754 0.204602,0.140438 0.700876,0.5943381 z M 10.988363,2.424817 c 0.133481,0.029298 0.260949,0.077609 0.377957,0.1431763 L 12.732512,0.52877308 C 12.381616,0.33207147 11.998952,0.18712525 11.598769,0.09924391 Z M 5.4909143,21.525012 c -0.7537584,0 -1.2404624,-9.57e-4 -1.6108767,-0.02858 -0.3551705,-0.02655 -0.4868477,-0.07163 -0.5514837,-0.101765 l -1.1870567,2.130965 c 0.4946789,0.230555 1.008759,0.315818 1.5256107,0.354443 0.5015948,0.03755 1.1131909,0.03659 1.8238064,0.03659 z M 2.2913021e-6,18.894192 c 0,0.650051 -0.0010197013,1.209459 0.039965988698,1.668179 0.0422278,0.47283 0.13546864,0.943029 0.38751457,1.39553 L 2.7572115,20.87209 C 2.7242795,20.8129 2.6750185,20.692477 2.6460074,20.36769 2.6157414,20.028793 2.6147224,19.583706 2.6147224,18.894192 Z M 3.3285539,21.394666 C 3.0825611,21.279987 2.8825612,21.097145 2.7572115,20.87209 l -2.32972865,1.085811 c 0.37602288,0.675045 0.97602275,1.22381 1.71401435,1.56773 z m 12.0982971,2.522 c 0.710681,0 1.322263,9.57e-4 1.823766,-0.03659 0.516931,-0.03862 1.030984,-0.123888 1.52569,-0.354443 l -1.187083,-2.130965 c -0.06471,0.03013 -0.196365,0.07522 -0.551445,0.101765 -0.370505,0.02762 -0.857104,0.02858 -1.610928,0.02858 z m 2.876191,-5.022474 c 0,0.689514 -0.0011,1.134601 -0.03124,1.473498 -0.02902,0.324787 -0.07831,0.445207 -0.111257,0.5044 l 2.329716,1.085811 c 0.252059,-0.452501 0.345273,-0.9227 0.387501,-1.39553 0.04105,-0.45872 0.04,-1.018128 0.04,-1.668179 z m 0.473265,4.631439 c 0.738005,-0.34392 1.337952,-0.892685 1.713949,-1.56773 L 18.16054,20.87209 c -0.125375,0.225055 -0.325271,0.407897 -0.571316,0.522576 z M 17.460579,8.0956926 c 0.496274,0.4538882 0.58779,0.5484542 0.649759,0.6410591 l 2.22944,-1.2496395 C 20.078437,7.0970095 19.717737,6.7779269 19.309448,6.4045299 Z m 3.457183,1.8602888 c 0,-0.5280775 0.0083,-0.987012 -0.10838,-1.4318956 l -2.542423,0.5583197 c 0.02772,0.1056155 0.03608,0.2316557 0.03608,0.8735759 z M 18.110338,8.7367517 c 0.07178,0.1069906 0.124591,0.2236436 0.156621,0.3456538 L 20.809382,8.5240858 C 20.713291,8.1580311 20.554839,7.8080962 20.339778,7.4871122 Z M 2.6147223,5.0225961 c 0,-0.6894542 0.00102,-1.1346367 0.031285,-1.4734504 0.029011,-0.3248704 0.078272,-0.4453141 0.1112042,-0.5044358 L 0.42748285,1.9589227 C 0.17543692,2.4113998 0.08219601,2.8816229 0.03996828,3.3543813 -0.00101745,3.8131843 2.2913021e-6,4.3726042 2.2913021e-6,5.0225961 Z M 5.4909143,1.2179508e-4 c -0.7106155,0 -1.3222116,-9.3275e-4 -1.8238064,0.0365564049 C 3.1502562,0.07530343 2.6361761,0.16058985 2.1414972,0.39113337 L 3.3285539,2.5221095 C 3.3931899,2.4919866 3.5248671,2.4469278 3.8800376,2.4203924 4.2504519,2.392709 4.7371559,2.3917763 5.4909143,2.3917763 Z M 2.7572115,3.0447099 C 2.8825612,2.819703 3.0825611,2.6367654 3.3285539,2.5221095 L 2.1414972,0.39113337 C 1.4035056,0.73507719 0.80350573,1.2838902 0.42748285,1.9589227 Z m 7.7407605,9.2036721 1.96104,7.174963 2.53654,-0.579976 -1.96104,-7.174964 z m 4.49758,7.174963 1.961041,-7.174963 -2.536541,-0.579977 -1.96104,7.174964 z M 9.1515222,17.93753 c -0.6270098,0 -1.0318992,-5.98e-4 -1.341665,-0.01997 C 7.5117791,17.89891 7.398261,17.8671 7.3438617,17.84653 l -1.000614,2.20953 c 0.4261078,0.161436 0.8574189,0.22063 1.2886254,0.247655 0.4195057,0.02607 0.9283302,0.02547 1.5196491,0.02547 z M 3.9220823,15.545876 c 0,0.540872 -7.059e-4,1.006288 0.027912,1.390029 0.029416,0.394384 0.094143,0.788887 0.2706366,1.178727 l 2.4156876,-0.915286 c -0.022539,-0.04975 -0.057328,-0.153664 -0.07767,-0.426312 -0.02114,-0.283292 -0.021846,-0.65364 -0.021846,-1.227158 z m 3.4217794,2.300652 C 7.0235193,17.725151 6.7690025,17.492324 6.6363185,17.199346 L 4.220631,18.114632 c 0.398065,0.878933 1.1616024,1.577416 2.1226167,1.941426 z m 1.8076605,-7.083962 c -0.5913189,0 -1.1001434,-5.98e-4 -1.5196491,0.02547 -0.4312065,0.02703 -0.8625176,0.08622 -1.2886254,0.247656 l 1.000614,2.209531 c 0.054399,-0.02057 0.1679174,-0.05238 0.4659955,-0.07103 0.3097658,-0.01937 0.7146552,-0.01997 1.341665,-0.01997 z m -2.61472,4.78331 c 0,-0.573519 7.061e-4,-0.943867 0.021846,-1.227158 0.020343,-0.272649 0.055132,-0.376566 0.07767,-0.426313 L 4.220631,12.977119 c -0.1764936,0.38984 -0.241221,0.784343 -0.2706366,1.178727 -0.028618,0.383741 -0.027913,0.849157 -0.027913,1.39003 z M 6.3432477,11.035693 C 5.3822203,11.399703 4.618696,12.098186 4.220631,12.977119 l 2.4156875,0.915286 C 6.7690025,13.599428 7.0235193,13.3666 7.3438617,13.245224 Z M 10.458882,1.4109707 v 5.7641144 h 2.614721 V 1.4109707 Z m 2.614721,8.1557688 h 6.301475 V 7.1750851 H 13.073603 Z M 10.458882,7.1750851 c 0,1.3208748 1.17061,2.3916544 2.614721,2.3916544 v -2.3916544 0 z m 1.608314,-4.0127537 5.393383,4.9333612 1.848869,-1.6911627 -5.393383,-4.9333612 z"
     fill="#000000"
     id="path1"
     style="stroke-width:1.25036" />
</svg>
